<?xml version="1.0" standalone="no"?>
<!DOCTYPE svg PUBLIC "-//W3C//DTD SVG 20010904//EN"
 "http://www.w3.org/TR/2001/REC-SVG-20010904/DTD/svg10.dtd">
<svg version="1.0" xmlns="http://www.w3.org/2000/svg"
 width="700.000000pt" height="700.000000pt" viewBox="0 0 700.000000 700.000000"
 preserveAspectRatio="xMidYMid meet">
<metadata>
Created by potrace 1.11, written by Peter Selinger 2001-2013
</metadata>
<g transform="translate(0.000000,700.000000) scale(0.100000,-0.100000)"
fill="#000000" stroke="none">
<path d="M3298 6996 c-1 -2 -41 -6 -88 -10 -100 -7 -225 -22 -295 -36 -27 -5
-63 -12 -80 -15 -330 -56 -734 -205 -1055 -388 -366 -209 -641 -435 -944 -777
-102 -114 -277 -364 -374 -533 -184 -319 -334 -724 -398 -1072 -9 -49 -17 -97
-19 -105 -2 -9 -6 -43 -10 -75 -4 -33 -9 -69 -11 -80 -19 -99 -26 -567 -11
-715 9 -81 25 -207 33 -255 3 -16 7 -39 8 -50 2 -11 6 -33 10 -50 3 -16 8 -39
10 -51 15 -78 62 -253 97 -361 319 -984 1055 -1775 2016 -2167 256 -104 618
-200 838 -222 33 -3 63 -8 66 -10 29 -17 534 -25 709 -11 105 9 111 9 290 38
255 42 516 118 773 226 117 49 344 162 388 194 15 10 30 19 34 19 12 0 282
184 370 253 162 126 348 302 468 442 33 39 63 72 67 75 3 3 44 55 90 115 332
437 547 915 654 1456 14 70 28 155 32 190 3 35 8 67 10 70 17 30 25 533 11
704 -7 91 -23 221 -33 266 -2 13 -7 41 -10 62 -8 55 -58 268 -84 357 -46 162
-197 545 -231 586 -7 8 0 41 23 106 30 87 32 102 33 233 0 120 -3 151 -23 215
-65 205 -196 362 -384 460 -43 23 -78 38 -78 34 0 -3 -6 -2 -12 4 -37 30 -270
54 -362 36 -32 -5 -42 -2 -84 32 -26 21 -56 47 -67 57 -23 21 -190 141 -245
177 -385 248 -787 416 -1208 505 -95 20 -196 35 -392 61 -48 6 -526 15 -532
10z m478 -810 c11 -2 47 -7 79 -10 32 -4 77 -11 99 -16 23 -4 59 -11 80 -14
84 -13 342 -87 421 -121 17 -7 55 -23 85 -35 137 -55 326 -156 452 -241 105
-71 219 -160 214 -167 -10 -17 -18 -103 -18 -187 3 -373 301 -699 669 -731 39
-4 75 -10 80 -13 23 -16 117 -262 164 -430 26 -95 62 -266 73 -351 28 -215 28
-554 1 -740 -73 -486 -241 -886 -539 -1279 -83 -110 -287 -323 -408 -425 -168
-142 -474 -331 -653 -403 -16 -7 -48 -19 -70 -28 -22 -9 -49 -20 -60 -25 -31
-14 -202 -66 -290 -89 -120 -30 -267 -55 -422 -70 -83 -9 -454 -6 -513 3 -19
3 -55 8 -80 11 -110 13 -286 51 -416 90 -435 132 -796 347 -1114 665 -152 151
-189 192 -230 250 -13 19 -30 41 -38 49 -22 22 -152 219 -152 230 0 5 -3 11
-7 13 -24 10 -160 295 -218 454 -114 314 -159 577 -160 924 0 165 7 285 19
360 3 14 7 41 10 60 5 32 27 147 40 209 32 147 117 382 199 551 60 123 182
327 241 405 107 139 155 195 281 320 123 124 156 154 235 215 25 19 47 37 50
40 24 25 208 143 318 204 326 180 676 287 1047 322 39 3 71 8 73 9 6 5 435 -3
458 -9z"/>
<path d="M3388 5235 c-2 -1 -32 -5 -68 -9 -118 -11 -171 -20 -280 -51 -368
-104 -689 -318 -913 -610 -246 -322 -369 -695 -361 -1094 5 -263 49 -459 154
-691 194 -427 548 -753 994 -916 63 -23 195 -59 251 -69 127 -22 189 -28 314
-29 541 -8 1034 225 1376 649 187 231 316 521 360 805 29 191 25 451 -10 617
-127 607 -542 1089 -1117 1298 -175 64 -355 96 -555 100 -78 1 -144 1 -145 0z"/>
</g>
</svg>
